# xmcd
#
# Track frame offsets: 
#        150
#        27717
#        54692
#        85777
#        113835
#        144162
#        173310
#        204152
#        233035
#        262070
#        294915
#        320460
#
# Disc length: 4680 seconds
#
# Revision: 1
# Processed by: cddbd v1.5.2PL0 Copyright (c) Steve Scherf et al.
# Submitted via: ExactAudioCopyFreeDBPlugin 1.0
#
DISCID=9d12460c
DTITLE=Various Artist - Raodkill 2.20
DYEAR=1900
DGENRE=
TTITLE0=BT - Remember [Roadkill]
TTITLE1=Ralphi Rosario feat. Donna Blakely - Take Me Up (Gotta Get Up)
TTITLE1=[Roadkill]
TTITLE2=Mark Imperial - The Love I Lost [Roadkill]
TTITLE3=Usura - Open Your Mind [Roadkill]
TTITLE4=Transister - Head [Roadkill]
TTITLE5=Dario G - Sunchyme [Roadkill]
TTITLE6=Tilt - Butterfly [Roadkill]
TTITLE7=Transa - Enervate [Roadkill]
TTITLE8=The Funky Generation - The Funky Reverend [Roadkill]
TTITLE9=Jamie Myerson - Rescue Me (feat. Carol Tripp) [Roadkill]
TTITLE10=Barry Harris - Why'd Ya Let Her [Roadkill]
TTITLE11=Arkarna - The Future's Overrated [Roadkill]
EXTD=
EXTT0=
EXTT1=
EXTT2=
EXTT3=
EXTT4=
EXTT5=
EXTT6=
EXTT7=
EXTT8=
EXTT9=
EXTT10=
EXTT11=
PLAYORDER=
